<svg id="Layer_1" data-name="Layer 1" xmlns="http://www.w3.org/2000/svg" viewBox="0 0 100 100"><defs><style>.cls-1{fill:#f0f2ff;}.cls-2,.cls-8{fill:none;}.cls-10,.cls-2,.cls-5,.cls-6,.cls-9{stroke:#4550e5;stroke-linejoin:round;}.cls-2,.cls-5,.cls-6{stroke-linecap:round;}.cls-10,.cls-3,.cls-6{fill:#fff;}.cls-4,.cls-5,.cls-9{fill:#d6daff;}.cls-7{fill:#4550e5;}</style></defs><title>doctor-hospital</title><path class="cls-1" d="M89.53,53.29a40,40,0,1,0-76.44,16.5H86A39.93,39.93,0,0,0,89.53,53.29Z"/><line class="cls-2" x1="10.53" y1="69.79" x2="88.53" y2="69.79"/><line class="cls-2" x1="6.03" y1="69.79" x2="8.53" y2="69.79"/><line class="cls-2" x1="90.53" y1="69.79" x2="93.03" y2="69.79"/><path class="cls-3" d="M40.82,43.3h8.63a0,0,0,0,1,0,0V69.77a0,0,0,0,1,0,0H39.82a0,0,0,0,1,0,0V44.3A1,1,0,0,1,40.82,43.3Z"/><path class="cls-2" d="M40.82,43.3h8.63a0,0,0,0,1,0,0V69.77a0,0,0,0,1,0,0H39.82a0,0,0,0,1,0,0V44.3A1,1,0,0,1,40.82,43.3Z"/><path class="cls-4" d="M94,54.73a1.8,1.8,0,0,1-1.8,1.81h-15V52.93h15A1.8,1.8,0,0,1,94,54.73Z"/><path class="cls-2" d="M94,54.73a1.8,1.8,0,0,1-1.8,1.81h-15V52.93h15A1.8,1.8,0,0,1,94,54.73Z"/><polygon class="cls-3" points="84.95 69.77 87.96 69.77 90.36 56.54 87.36 56.54 84.95 69.77"/><polygon class="cls-2" points="84.95 69.77 87.96 69.77 90.36 56.54 87.36 56.54 84.95 69.77"/><path class="cls-3" d="M50.45,25.25H76.13a1,1,0,0,1,1,1V69.77a0,0,0,0,1,0,0H49.45a0,0,0,0,1,0,0V26.25A1,1,0,0,1,50.45,25.25Z"/><path class="cls-2" d="M50.45,25.25H76.13a1,1,0,0,1,1,1V69.77a0,0,0,0,1,0,0H49.45a0,0,0,0,1,0,0V26.25A1,1,0,0,1,50.45,25.25Z"/><rect class="cls-5" x="48.25" y="41.5" width="30.08" height="3.01" rx="1" ry="1"/><path class="cls-4" d="M49.25,25.25H77.33a1,1,0,0,1,1,1v2a0,0,0,0,1,0,0H48.25a0,0,0,0,1,0,0v-2A1,1,0,0,1,49.25,25.25Z"/><path class="cls-2" d="M49.25,25.25H77.33a1,1,0,0,1,1,1v2a0,0,0,0,1,0,0H48.25a0,0,0,0,1,0,0v-2A1,1,0,0,1,49.25,25.25Z"/><rect class="cls-3" x="56.07" y="15.62" width="14.44" height="14.44" rx="2" ry="2"/><rect class="cls-2" x="56.07" y="15.62" width="14.44" height="14.44" rx="2" ry="2"/><path class="cls-5" d="M67.1,21h-2V19a1,1,0,0,0-1-1H62.48a1,1,0,0,0-1,1v2h-2a1,1,0,0,0-1,1v1.61a1,1,0,0,0,1,1h2v2a1,1,0,0,0,1,1h1.61a1,1,0,0,0,1-1v-2h2a1,1,0,0,0,1-1V22A1,1,0,0,0,67.1,21Z"/><path class="cls-4" d="M57.67,56.54H68.91a1,1,0,0,1,1,1V69.77a0,0,0,0,1,0,0H56.67a0,0,0,0,1,0,0V57.54A1,1,0,0,1,57.67,56.54Z"/><path class="cls-3" d="M68.91,56.54H57.67a1,1,0,0,0-1,1V69.1L69.19,56.58A.86.86,0,0,0,68.91,56.54Z"/><path class="cls-2" d="M57.67,56.54H68.91a1,1,0,0,1,1,1V69.77a0,0,0,0,1,0,0H56.67a0,0,0,0,1,0,0V57.54A1,1,0,0,1,57.67,56.54Z"/><line class="cls-2" x1="63.29" y1="56.54" x2="63.29" y2="69.77"/><rect class="cls-4" x="53.06" y="33.07" width="4.81" height="5.42" rx="1" ry="1"/><path class="cls-3" d="M57.51,33.3a1,1,0,0,0-.64-.23H54.06a1,1,0,0,0-1,1v3.42a.91.91,0,0,0,0,.23Z"/><rect class="cls-2" x="53.06" y="33.07" width="4.81" height="5.42" rx="1" ry="1"/><rect class="cls-4" x="60.88" y="33.07" width="4.81" height="5.42" rx="1" ry="1"/><path class="cls-3" d="M65.33,33.3a1,1,0,0,0-.64-.23H61.88a1,1,0,0,0-1,1v3.42a.91.91,0,0,0,0,.23Z"/><rect class="cls-2" x="60.88" y="33.07" width="4.81" height="5.42" rx="1" ry="1"/><rect class="cls-4" x="68.7" y="33.07" width="4.81" height="5.42" rx="1" ry="1"/><path class="cls-3" d="M73.15,33.3a1,1,0,0,0-.63-.23H69.7a1,1,0,0,0-1,1v3.42a.91.91,0,0,0,0,.23Z"/><rect class="cls-2" x="68.7" y="33.07" width="4.81" height="5.42" rx="1" ry="1"/><rect class="cls-4" x="68.7" y="47.51" width="4.81" height="5.42" rx="1" ry="1"/><path class="cls-3" d="M73.15,47.74a1,1,0,0,0-.63-.23H69.7a1,1,0,0,0-1,1v3.42a.91.91,0,0,0,0,.23Z"/><rect class="cls-2" x="68.7" y="47.51" width="4.81" height="5.42" rx="1" ry="1"/><rect class="cls-4" x="60.88" y="47.51" width="4.81" height="5.42" rx="1" ry="1"/><path class="cls-3" d="M65.33,47.74a1,1,0,0,0-.64-.23H61.88a1,1,0,0,0-1,1v3.42a.91.91,0,0,0,0,.23Z"/><rect class="cls-2" x="60.88" y="47.51" width="4.81" height="5.42" rx="1" ry="1"/><rect class="cls-4" x="53.06" y="47.51" width="4.81" height="5.42" rx="1" ry="1"/><path class="cls-3" d="M57.51,47.74a1,1,0,0,0-.64-.23H54.06a1,1,0,0,0-1,1v3.42a.91.91,0,0,0,0,.23Z"/><rect class="cls-2" x="53.06" y="47.51" width="4.81" height="5.42" rx="1" ry="1"/><rect class="cls-4" x="42.23" y="47.51" width="4.81" height="5.42" rx="1" ry="1"/><path class="cls-3" d="M46.68,47.74a1,1,0,0,0-.64-.23H43.23a1,1,0,0,0-1,1v3.42a.91.91,0,0,0,0,.23Z"/><rect class="cls-2" x="42.23" y="47.51" width="4.81" height="5.42" rx="1" ry="1"/><rect class="cls-4" x="42.23" y="56.54" width="4.81" height="5.42" rx="1" ry="1"/><path class="cls-3" d="M46.68,56.76a1,1,0,0,0-.64-.22H43.23a1,1,0,0,0-1,1V61a.85.85,0,0,0,0,.23Z"/><rect class="cls-2" x="42.23" y="56.54" width="4.81" height="5.42" rx="1" ry="1"/><path class="cls-4" d="M43.19,85c0,1-4.89,1.72-10.92,1.72S21.34,85.94,21.34,85s4.89-1.73,10.93-1.73S43.19,84,43.19,85Z"/><path class="cls-3" d="M32.07,40.94A12.45,12.45,0,0,0,19.62,53.4v4.15l0,0a12.44,12.44,0,0,1,24.85,0l0,0V53.4A12.46,12.46,0,0,0,32.07,40.94Z"/><path class="cls-6" d="M32.08,38.64a6.9,6.9,0,0,0,6.57-4.84h0c2.19,0,2.32-3.46.35-3.46V29a6.92,6.92,0,0,0-13.84,0v1.39c-2,0-1.84,3.46.35,3.46h0A6.9,6.9,0,0,0,32.08,38.64Z"/><path class="cls-7" d="M29.83,29.65a.87.87,0,1,0,.86.86.85.85,0,0,0-.86-.86Z"/><path class="cls-7" d="M34.33,29.65a.87.87,0,1,0,.86.86.86.86,0,0,0-.86-.86Z"/><path class="cls-4" d="M28.62,32.41a.69.69,0,1,1-.69-.69A.69.69,0,0,1,28.62,32.41Z"/><path class="cls-4" d="M36.92,32.41a.69.69,0,1,1-.69-.69A.69.69,0,0,1,36.92,32.41Z"/><path class="cls-2" d="M30.35,34.55a3.11,3.11,0,0,0,3.46,0"/><path class="cls-6" d="M28.27,26.17c3,2.94,8.26,2.46,11.41,1.39a7.61,7.61,0,0,0-15.22,0V30s3.81-.95,3.81-3.8"/><path class="cls-2" d="M28.27,26.17c3,2.94,8.26,2.46,11.41,1.39a7.61,7.61,0,0,0-15.22,0V30s3.81-.95,3.81-3.8"/><path class="cls-2" d="M28.27,26.17c-.36-.34-.41-.29-.69-.72"/><polygon class="cls-5" points="30 83.15 30.3 76.23 24.46 76.23 24.46 83.15 30 83.15"/><polygon class="cls-5" points="34.15 83.15 33.85 76.23 39.68 76.23 39.68 83.15 34.15 83.15"/><path class="cls-6" d="M23.59,82.06a1.15,1.15,0,0,0,1,1.78h4.74a1.15,1.15,0,0,0,1-.55,1.17,1.17,0,0,0,0-1.13C29.05,79.74,25,79.87,23.59,82.06Z"/><path class="cls-6" d="M40.55,82.06a1.15,1.15,0,0,1-1,1.78H34.86a1.14,1.14,0,0,1-1-1.68C35.09,79.74,39.12,79.87,40.55,82.06Z"/><path class="cls-8" d="M33.52,68.62a1.65,1.65,0,0,0-.11-.45,4.5,4.5,0,0,1-1-.87,1,1,0,0,0-.72,0,4.69,4.69,0,0,1-1,.87,1.15,1.15,0,0,0-.11.45l-.33,7.61h3.55Z"/><path class="cls-6" d="M32.07,40.94A12.45,12.45,0,0,0,19.62,53.4v4.65a11,11,0,0,0,4.5,8.79L23.22,75a1.14,1.14,0,0,0,1.14,1.28H39.78a1.17,1.17,0,0,0,.86-.38,1.14,1.14,0,0,0,.28-.9L40,66.84a11,11,0,0,0,4.51-8.79V53.4A12.46,12.46,0,0,0,32.07,40.94Z"/><path class="cls-2" d="M24.46,53.4v4.65A5.72,5.72,0,0,0,27.15,63a1.17,1.17,0,0,1,.41,1.37l-1,2.48a1.16,1.16,0,0,1-1.65.57,6.33,6.33,0,0,1-.81-.54"/><path class="cls-2" d="M39.68,53.4v4.65A5.72,5.72,0,0,1,37,63a1.17,1.17,0,0,0-.41,1.37l1,2.48a1.17,1.17,0,0,0,.7.66,1.13,1.13,0,0,0,1-.09,7.2,7.2,0,0,0,.82-.54"/><polygon class="cls-6" points="28.72 47.08 32.07 55.47 35.43 47.08 32.07 44.4 28.72 47.08"/><polygon class="cls-9" points="30.17 50.73 32.07 44.4 33.97 50.73 32.07 55.47 30.17 50.73"/><path class="cls-6" d="M32.07,40.94a12.48,12.48,0,0,0-2.81.32l2.81,3.14,2.81-3.14A12.35,12.35,0,0,0,32.07,40.94Z"/><path class="cls-6" d="M28.72,47.08l3.35-2.68-2.81-3.14a12.13,12.13,0,0,0-2.52.88Z"/><path class="cls-6" d="M35.43,47.08,32.07,44.4l2.81-3.14a11.93,11.93,0,0,1,2.52.88Z"/><path class="cls-10" d="M26.54,47.86l-.62,3.08a.57.57,0,0,0,.24.59l5.91,3.94L26.74,42.15a12.38,12.38,0,0,0-1.8,1l-1.55,3.88a.58.58,0,0,0,.54.79Z"/><path class="cls-10" d="M37.61,47.86l.61,3.08a.57.57,0,0,1-.24.59l-5.91,3.94L37.4,42.15a12.38,12.38,0,0,1,1.8,1l1.55,3.88a.58.58,0,0,1-.06.54.55.55,0,0,1-.47.25Z"/><line class="cls-2" x1="32.07" y1="76.23" x2="32.07" y2="55.47"/></svg>