<svg id="Layer_1" data-name="Layer 1" xmlns="http://www.w3.org/2000/svg" viewBox="0 0 100 100"><defs><style>.cls-1{fill:#f0f2ff;}.cls-2{fill:none;}.cls-2,.cls-4,.cls-6{stroke:#4550e5;stroke-linecap:round;stroke-linejoin:round;}.cls-3,.cls-6{fill:#d6daff;}.cls-4,.cls-5{fill:#fff;}</style></defs><title>user-male-add</title><path class="cls-1" d="M90.5,53.88a40,40,0,1,0-76.44,16.5H86.94A39.92,39.92,0,0,0,90.5,53.88Z"/><line class="cls-2" x1="11" y1="70.38" x2="89" y2="70.38"/><line class="cls-2" x1="6.5" y1="70.38" x2="9" y2="70.38"/><line class="cls-2" x1="91" y1="70.38" x2="93.5" y2="70.38"/><path class="cls-3" d="M44,52.38A14.75,14.75,0,0,0,29,67.12v3.25H59V67.12A14.75,14.75,0,0,0,44,52.38Z"/><path class="cls-2" d="M44,52.38A14.75,14.75,0,0,0,29,67.12v3.25H59V67.12A14.75,14.75,0,0,0,44,52.38Z"/><line class="cls-2" x1="34.5" y1="70.37" x2="34.5" y2="65.87"/><line class="cls-2" x1="53.5" y1="70.37" x2="53.5" y2="65.87"/><path class="cls-4" d="M47.59,52.78s0,0,0,0A15,15,0,0,0,44,52.38a15.11,15.11,0,0,0-3.58.37v0l-1.11,4.8L44,70.37l4.7-12.79Z"/><polygon class="cls-5" points="44 49.88 40.5 49.88 40.5 55.18 44 57.51 47.5 55.18 47.5 49.88 44 49.88"/><polygon class="cls-2" points="44 49.88 40.5 49.88 40.5 55.18 44 57.51 47.5 55.18 47.5 49.88 44 49.88"/><polygon class="cls-4" points="44 57.88 41.49 67.38 44 70.38 46.51 67.38 44 57.88"/><polyline class="cls-2" points="47.67 60.31 44 57.88 40.33 60.31"/><path class="cls-4" d="M54,38.87v-2.5a10,10,0,0,0-20,0v2.5a2,2,0,0,0,0,4h.12a10,10,0,0,0,19.76,0H54a2,2,0,0,0,0-4Z"/><circle class="cls-3" cx="38.25" cy="42.63" r="1.25"/><circle class="cls-3" cx="49.75" cy="42.63" r="1.25"/><path class="cls-2" d="M41,45.17a4.36,4.36,0,0,0,6,0"/><path class="cls-2" d="M41.5,39.38a1.63,1.63,0,0,0-3,0"/><path class="cls-2" d="M49.51,39.37a1.63,1.63,0,0,0-3,0"/><path class="cls-5" d="M51.19,25.21c-1.91-2.54-12.47-2.54-14.38,0C28.9,27,31.65,40.51,32.46,39.7a1.91,1.91,0,0,1,2.21-.33c1.33-2,1.83-2,1.83-5,1.1.67,13.15.39,13.78-4.31-.22,3.71,1.29,6.44,3,9.31a1.91,1.91,0,0,1,2.21.33C56.35,40.51,59.1,27,51.19,25.21Z"/><path class="cls-2" d="M51.19,25.21c-1.91-2.54-12.47-2.54-14.38,0C28.9,27,31.65,40.51,32.46,39.7a1.91,1.91,0,0,1,2.21-.33c1.33-2,1.83-2,1.83-5,1.1.67,13.15.39,13.78-4.31-.22,3.71,1.29,6.44,3,9.31a1.91,1.91,0,0,1,2.21.33C56.35,40.51,59.1,27,51.19,25.21Z"/><path class="cls-6" d="M40.5,52.37l-1.2,5.21L44,70.37H41.5l-3.87-2.68a1,1,0,0,1-.32-1.29l1.39-2.63L35,60.62a1,1,0,0,1-.3-1.09C35.66,56.84,36.32,53.26,40.5,52.37Z"/><path class="cls-6" d="M47.5,52.37l1.2,5.21L44,70.37h2.5l3.87-2.68a1,1,0,0,0,.32-1.29L49.3,63.77,53,60.62a1,1,0,0,0,.3-1.09C52.34,56.84,51.68,53.26,47.5,52.37Z"/><ellipse class="cls-1" cx="62" cy="85.12" rx="8" ry="1"/><path class="cls-5" d="M74,67.37a1,1,0,0,0-1-1H66.5a1,1,0,0,1-1-1v-6.5a1,1,0,0,0-1-1h-5a1,1,0,0,0-1,1v6.5a1,1,0,0,1-1,1H51a1,1,0,0,0-1,1v5a1,1,0,0,0,1,1h6.5a1,1,0,0,1,1,1v6.5a1,1,0,0,0,1,1h5a1,1,0,0,0,1-1v-6.5a1,1,0,0,1,1-1H73a1,1,0,0,0,1-1Z"/><path class="cls-2" d="M74,67.37a1,1,0,0,0-1-1H66.5a1,1,0,0,1-1-1v-6.5a1,1,0,0,0-1-1h-5a1,1,0,0,0-1,1v6.5a1,1,0,0,1-1,1H51a1,1,0,0,0-1,1v5a1,1,0,0,0,1,1h6.5a1,1,0,0,1,1,1v6.5a1,1,0,0,0,1,1h5a1,1,0,0,0,1-1v-6.5a1,1,0,0,1,1-1H73a1,1,0,0,0,1-1Z"/></svg>